/* XPM */
static char *_9c513a429594389dc766cc83ff4adaaz54KWvS1gN4EtRfR[] = {
/* columns rows colors chars-per-pixel */
"378 38 4 1 ",
"  c black",
". c #007F0E",
"X c #4CFF00",
"o c #BCBCBC",
/* pixels */
"                                                                                                                                                                                                                                                                                                                                                                                          ",
"                                                                                                                                                                                                                                                                                                                                                                                          ",
"                                                                                                                                                                                                                                                                                                                                                                                          ",
"   X.....XXX.....XXX.....XXX.....XXX.o...XXX.....XXX.....XXX.....XXX.....XXo.....XXX.....XXX.....XXX.....XXX.....oXX.....XXX.....XXX.....XXX.....XXX..o..XXX.....XXX.....XXX.....XXX.....XXX.o...XXX.....XXX.....XXX.....XXX.....XoX.....XXX.....XXX.....XXX.....XXX....oXXX.....XXX.....XXX.....XXX.....XXX..o..XXX.....XXX.....XXX.....XXX.....XXXo....XXX.....XXX.....XXX.....XXX...   ",
"   .X...X...X...X...X...X...X...X...Xo..X...X...X...X...X...X...X...X...X..oX...X...X...X...X...X...X...X...X...Xo..X...X...X...X...X...X...X...X...X.o.X...X...X...X...X...X...X...X...X...Xo..X...X...X...X...X...X...X...X...X.o.X...X...X...X...X...X...X...X...X...o...X...X...X...X...X...X...X...X...X.o.X...X...X...X...X...X...X...X...X...o...X...X...X...X...X...X...X...X..   ",
"   ..XXX.XX..XXX.XX..XXX.XX..XXX.XX..oXX.XX..XXX.XX..XXX.XX..XXX.XX..XXX.XXo.XXX.XX..XXX.XX..XXX.XX..XXX.XX..XXX.oX..XXX.XX..XXX.XX..XXX.XX..XXX.XX..XoX.XX..XXX.XX..XXX.XX..XXX.XX..XXX.XX..oXX.XX..XXX.XX..XXX.XX..XXX.XX..XXX.Xo..XXX.XX..XXX.XX..XXX.XX..XXX.XX..XXXoXX..XXX.XX..XXX.XX..XXX.XX..XXX.XX..XoX.XX..XXX.XX..XXX.XX..XXX.XX..XXX.XX.oXXX.XX..XXX.XX..XXX.XX..XXX.XX..XX   ",
"   ..XXX.....XXX.....XXX.....XXX.....oXX.....XXX.....XXX.....XXX.....XXX...o.XXX.....XXX.....XXX.....XXX.....XXX.o...XXX.....XXX.....XXX.....XXX.....XoX.....XXX.....XXX.....XXX.....XXX.....oXX.....XXX.....XXX.....XXX.....XXX..o..XXX.....XXX.....XXX.....XXX.....XXXo....XXX.....XXX.....XXX.....XXX.....XoX.....XXX.....XXX.....XXX.....XXX....oXXX.....XXX.....XXX.....XXX.....XX   ",
"   ..XXX.....XXX.....XXX.....XXX.....oXX.....XXX.....XXX.....XXX.....XXX...o.XXX.....XXX.....XXX.....XXX.....XXX.o...XXX.....XXX.....XXX.....XXX.....XoX.....XXX.....XXX.....XXX.....XXX.....oXX.....XXX.....XXX.....XXX.....XXX..o..XXX.....XXX.....XXX.....XXX.....XXXo....XXX.....XXX.....XXX.....XXX.....XoX.....XXX.....XXX.....XXX.....XXX....oXXX.....XXX.....XXX.....XXX.....XX   ",
"   .X...X...X...X...X...X...X...X...Xo..X...X...X...X...X...X...X...X...X..oX...X...X...X...X...X...X...X...X...Xo..X...X...X...X...X...X...X...X...X.o.X...X...X...X...X...X...X...X...X...Xo..X...X...X...X...X...X...X...X...X.o.X...X...X...X...X...X...X...X...X...o...X...X...X...X...X...X...X...X...X.o.X...X...X...X...X...X...X...X...X...o...X...X...X...X...X...X...X...X..   ",
"   X.XX..XXX.XX..XXX.XX..XXX.XX..XXX.oX..XXX.XX..XXX.XX..XXX.XX..XXX.XX..XXo.XX..XXX.XX..XXX.XX..XXX.XX..XXX.XX..oXX.XX..XXX.XX..XXX.XX..XXX.XX..XXX.Xo..XXX.XX..XXX.XX..XXX.XX..XXX.XX..XXX.oX..XXX.XX..XXX.XX..XXX.XX..XXX.XX..XoX.XX..XXX.XX..XXX.XX..XXX.XX..XXX.XX.oXXX.XX..XXX.XX..XXX.XX..XXX.XX..XXX.Xo..XXX.XX..XXX.XX..XXX.XX..XXX.XX..XXXoXX..XXX.XX..XXX.XX..XXX.XX..XXX.XX   ",
"   X.....XXX.....XXX.....XXX.....XXX.o...XXX.....XXX.....XXX.....XXX.....XXo.....XXX.....XXX.....XXX.....XXX.....oXX.....XXX.....XXX.....XXX.....XXX..o..XXX.....XXX.....XXX.....XXX.....XXX.o...XXX.....XXX.....XXX.....XXX.....XoX.....XXX.....XXX.....XXX.....XXX....oXXX.....XXX.....XXX.....XXX.....XXX..o..XXX.....XXX.....XXX.....XXX.....XXXo....XXX.....XXX.....XXX.....XXX...   ",
"   X.....XXX.....XXX.....XXX.....XXX.o...XXX.....XXX.....XXX.....XXX.....XXo.....XXX.....XXX.....XXX.....XXX.....oXX.....XXX.....XXX.....XXX.....XXX..o..XXX.....XXX.....XXX.....XXX.....XXX.o...XXX.....XXX.....XXX.....XXX.....XoX.....XXX.....XXX.....XXX.....XXX....oXXX.....XXX.....XXX.....XXX.....XXX..o..XXX.....XXX.....XXX.....XXX.....XXXo....XXX.....XXX.....XXX.....XXX...   ",
"   .X...X...X...X...X...X...X...X...Xo..X...X...X...X...X...X...X...X...X..oX...X...X...X...X...X...X...X...X...Xo..X...X...X...X...X...X...X...X...X.o.X...X...X...X...X...X...X...X...X...Xo..X...X...X...X...X...X...X...X...X.o.X...X...X...X...X...X...X...X...X...o...X...X...X...X...X...X...X...X...X.o.X...X...X...X...X...X...X...X...X...o...X...X...X...X...X...X...X...X..   ",
"   ..XXX.XX..XXX.XX..XXX.XX..XXX.XX..oXX.XX..XXX.XX..XXX.XX..XXX.XX..XXX.XXo.XXX.XX..XXX.XX..XXX.XX..XXX.XX..XXX.oX..XXX.XX..XXX.XX..XXX.XX..XXX.XX..XoX.XX..XXX.XX..XXX.XX..XXX.XX..XXX.XX..oXX.XX..XXX.XX..XXX.XX..XXX.XX..XXX.Xo..XXX.XX..XXX.XX..XXX.XX..XXX.XX..XXXoXX..XXX.XX..XXX.XX..XXX.XX..XXX.XX..XoX.XX..XXX.XX..XXX.XX..XXX.XX..XXX.XX.oXXX.XX..XXX.XX..XXX.XX..XXX.XX..XX   ",
"   ..XXX.....XXX.....XXX.....XXX.....oXX.....XXX.....XXX.....XXX.....XXX...o.XXX.....XXX.....XXX.....XXX.....XXX.o...XXX.....XXX.....XXX.....XXX.....XoX.....XXX.....XXX.....XXX.....XXX.....oXX.....XXX.....XXX.....XXX.....XXX..o..XXX.....XXX.....XXX.....XXX.....XXXo....XXX.....XXX.....XXX.....XXX.....XoX.....XXX.....XXX.....XXX.....XXX....oXXX.....XXX.....XXX.....XXX.....XX   ",
"   ..XXX.....XXX.....XXX.....XXX.....oXX.....XXX.....XXX.....XXX.....XXX...o.XXX.....XXX.....XXX.....XXX.....XXX.o...XXX.....XXX.....XXX.....XXX.....XoX.....XXX.....XXX.....XXX.....XXX.....oXX.....XXX.....XXX.....XXX.....XXX..o..XXX.....XXX.....XXX.....XXX.....XXXo....XXX.....XXX.....XXX.....XXX.....XoX.....XXX.....XXX.....XXX.....XXX....oXXX.....XXX.....XXX.....XXX.....XX   ",
"   .X...X...X...X...X...X...X...X...Xo..X...X...X...X...X...X...X...X...X..oX...X...X...X...X...X...X...X...X...Xo..X...X...X...X...X...X...X...X...X.o.X...X...X...X...X...X...X...X...X...Xo..X...X...X...X...X...X...X...X...X.o.X...X...X...X...X...X...X...X...X...o...X...X...X...X...X...X...X...X...X.o.X...X...X...X...X...X...X...X...X...o...X...X...X...X...X...X...X...X..   ",
"   X.XX..XXX.XX..XXX.XX..XXX.XX..XXX.oX..XXX.XX..XXX.XX..XXX.XX..XXX.XX..XXo.XX..XXX.XX..XXX.XX..XXX.XX..XXX.XX..oXX.XX..XXX.XX..XXX.XX..XXX.XX..XXX.Xo..XXX.XX..XXX.XX..XXX.XX..XXX.XX..XXX.oX..XXX.XX..XXX.XX..XXX.XX..XXX.XX..XoX.XX..XXX.XX..XXX.XX..XXX.XX..XXX.XX.oXXX.XX..XXX.XX..XXX.XX..XXX.XX..XXX.Xo..XXX.XX..XXX.XX..XXX.XX..XXX.XX..XXXoXX..XXX.XX..XXX.XX..XXX.XX..XXX.XX   ",
"   X.....XXX.....XXX.....XXX.....XXX.o...XXX.....XXX.....XXX.....XXX.....XXo.....XXX.....XXX.....XXX.....XXX.....oXX.....XXX.....XXX.....XXX.....XXX..o..XXX.....XXX.....XXX.....XXX.....XXX.o...XXX.....XXX.....XXX.....XXX.....XoX.....XXX.....XXX.....XXX.....XXX....oXXX.....XXX.....XXX.....XXX.....XXX..o..XXX.....XXX.....XXX.....XXX.....XXXo....XXX.....XXX.....XXX.....XXX...   ",
"   X.....XXX.....XXX.....XXX.....XXX.o...XXX.....XXX.....XXX.....XXX.....XXo.....XXX.....XXX.....XXX.....XXX.....oXX.....XXX.....XXX.....XXX.....XXX..o..XXX.....XXX.....XXX.....XXX.....XXX.o...XXX.....XXX.....XXX.....XXX.....XoX.....XXX.....XXX.....XXX.....XXX....oXXX.....XXX.....XXX.....XXX.....XXX..o..XXX.....XXX.....XXX.....XXX.....XXXo....XXX.....XXX.....XXX.....XXX...   ",
"   .X...X...X...X...X...X...X...X...Xo..X...X...X...X...X...X...X...X...X..oX...X...X...X...X...X...X...X...X...Xo..X...X...X...X...X...X...X...X...X.o.X...X...X...X...X...X...X...X...X...Xo..X...X...X...X...X...X...X...X...X.o.X...X...X...X...X...X...X...X...X...o...X...X...X...X...X...X...X...X...X.o.X...X...X...X...X...X...X...X...X...o...X...X...X...X...X...X...X...X..   ",
"   ..XXX.XX..XXX.XX..XXX.XX..XXX.XX..oXX.XX..XXX.XX..XXX.XX..XXX.XX..XXX.XXo.XXX.XX..XXX.XX..XXX.XX..XXX.XX..XXX.oX..XXX.XX..XXX.XX..XXX.XX..XXX.XX..XoX.XX..XXX.XX..XXX.XX..XXX.XX..XXX.XX..oXX.XX..XXX.XX..XXX.XX..XXX.XX..XXX.Xo..XXX.XX..XXX.XX..XXX.XX..XXX.XX..XXXoXX..XXX.XX..XXX.XX..XXX.XX..XXX.XX..XoX.XX..XXX.XX..XXX.XX..XXX.XX..XXX.XX.oXXX.XX..XXX.XX..XXX.XX..XXX.XX..XX   ",
"   ..XXX.....XXX.....XXX.....XXX.....oXX.....XXX.....XXX.....XXX.....XXX...o.XXX.....XXX.....XXX.....XXX.....XXX.o...XXX.....XXX.....XXX.....XXX.....XoX.....XXX.....XXX.....XXX.....XXX.....oXX.....XXX.....XXX.....XXX.....XXX..o..XXX.....XXX.....XXX.....XXX.....XXXo....XXX.....XXX.....XXX.....XXX.....XoX.....XXX.....XXX.....XXX.....XXX....oXXX.....XXX.....XXX.....XXX.....XX   ",
"   ..XXX.....XXX.....XXX.....XXX.....oXX.....XXX.....XXX.....XXX.....XXX...o.XXX.....XXX.....XXX.....XXX.....XXX.o...XXX.....XXX.....XXX.....XXX.....XoX.....XXX.....XXX.....XXX.....XXX.....oXX.....XXX.....XXX.....XXX.....XXX..o..XXX.....XXX.....XXX.....XXX.....XXXo....XXX.....XXX.....XXX.....XXX.....XoX.....XXX.....XXX.....XXX.....XXX....oXXX.....XXX.....XXX.....XXX.....XX   ",
"   .X...X...X...X...X...X...X...X...Xo..X...X...X...X...X...X...X...X...X..oX...X...X...X...X...X...X...X...X...Xo..X...X...X...X...X...X...X...X...X.o.X...X...X...X...X...X...X...X...X...Xo..X...X...X...X...X...X...X...X...X.o.X...X...X...X...X...X...X...X...X...o...X...X...X...X...X...X...X...X...X.o.X...X...X...X...X...X...X...X...X...o...X...X...X...X...X...X...X...X..   ",
"   X.XX..XXX.XX..XXX.XX..XXX.XX..XXX.oX..XXX.XX..XXX.XX..XXX.XX..XXX.XX..XXo.XX..XXX.XX..XXX.XX..XXX.XX..XXX.XX..oXX.XX..XXX.XX..XXX.XX..XXX.XX..XXX.Xo..XXX.XX..XXX.XX..XXX.XX..XXX.XX..XXX.oX..XXX.XX..XXX.XX..XXX.XX..XXX.XX..XoX.XX..XXX.XX..XXX.XX..XXX.XX..XXX.XX.oXXX.XX..XXX.XX..XXX.XX..XXX.XX..XXX.Xo..XXX.XX..XXX.XX..XXX.XX..XXX.XX..XXXoXX..XXX.XX..XXX.XX..XXX.XX..XXX.XX   ",
"   X.....XXX.....XXX.....XXX.....XXX.o...XXX.....XXX.....XXX.....XXX.....XXo.....XXX.....XXX.....XXX.....XXX.....oXX.....XXX.....XXX.....XXX.....XXX..o..XXX.....XXX.....XXX.....XXX.....XXX.o...XXX.....XXX.....XXX.....XXX.....XoX.....XXX.....XXX.....XXX.....XXX....oXXX.....XXX.....XXX.....XXX.....XXX..o..XXX.....XXX.....XXX.....XXX.....XXXo....XXX.....XXX.....XXX.....XXX...   ",
"   X.....XXX.....XXX.....XXX.....XXX.o...XXX.....XXX.....XXX.....XXX.....XXo.....XXX.....XXX.....XXX.....XXX.....oXX.....XXX.....XXX.....XXX.....XXX..o..XXX.....XXX.....XXX.....XXX.....XXX.o...XXX.....XXX.....XXX.....XXX.....XoX.....XXX.....XXX.....XXX.....XXX....oXXX.....XXX.....XXX.....XXX.....XXX..o..XXX.....XXX.....XXX.....XXX.....XXXo....XXX.....XXX.....XXX.....XXX...   ",
"   .X...X...X...X...X...X...X...X...Xo..X...X...X...X...X...X...X...X...X..oX...X...X...X...X...X...X...X...X...Xo..X...X...X...X...X...X...X...X...X.o.X...X...X...X...X...X...X...X...X...Xo..X...X...X...X...X...X...X...X...X.o.X...X...X...X...X...X...X...X...X...o...X...X...X...X...X...X...X...X...X.o.X...X...X...X...X...X...X...X...X...o...X...X...X...X...X...X...X...X..   ",
"   ..XXX.XX..XXX.XX..XXX.XX..XXX.XX..oXX.XX..XXX.XX..XXX.XX..XXX.XX..XXX.XXo.XXX.XX..XXX.XX..XXX.XX..XXX.XX..XXX.oX..XXX.XX..XXX.XX..XXX.XX..XXX.XX..XoX.XX..XXX.XX..XXX.XX..XXX.XX..XXX.XX..oXX.XX..XXX.XX..XXX.XX..XXX.XX..XXX.Xo..XXX.XX..XXX.XX..XXX.XX..XXX.XX..XXXoXX..XXX.XX..XXX.XX..XXX.XX..XXX.XX..XoX.XX..XXX.XX..XXX.XX..XXX.XX..XXX.XX.oXXX.XX..XXX.XX..XXX.XX..XXX.XX..XX   ",
"   ..XXX.....XXX.....XXX.....XXX.....oXX.....XXX.....XXX.....XXX.....XXX...o.XXX.....XXX.....XXX.....XXX.....XXX.o...XXX.....XXX.....XXX.....XXX.....XoX.....XXX.....XXX.....XXX.....XXX.....oXX.....XXX.....XXX.....XXX.....XXX..o..XXX.....XXX.....XXX.....XXX.....XXXo....XXX.....XXX.....XXX.....XXX.....XoX.....XXX.....XXX.....XXX.....XXX....oXXX.....XXX.....XXX.....XXX.....XX   ",
"   ..XXX.....XXX.....XXX.....XXX.....oXX.....XXX.....XXX.....XXX.....XXX...o.XXX.....XXX.....XXX.....XXX.....XXX.o...XXX.....XXX.....XXX.....XXX.....XoX.....XXX.....XXX.....XXX.....XXX.....oXX.....XXX.....XXX.....XXX.....XXX..o..XXX.....XXX.....XXX.....XXX.....XXXo....XXX.....XXX.....XXX.....XXX.....XoX.....XXX.....XXX.....XXX.....XXX....oXXX.....XXX.....XXX.....XXX.....XX   ",
"   .X...X...X...X...X...X...X...X...Xo..X...X...X...X...X...X...X...X...X..oX...X...X...X...X...X...X...X...X...Xo..X...X...X...X...X...X...X...X...X.o.X...X...X...X...X...X...X...X...X...Xo..X...X...X...X...X...X...X...X...X.o.X...X...X...X...X...X...X...X...X...o...X...X...X...X...X...X...X...X...X.o.X...X...X...X...X...X...X...X...X...o...X...X...X...X...X...X...X...X..   ",
"   X.XX..XXX.XX..XXX.XX..XXX.XX..XXX.oX..XXX.XX..XXX.XX..XXX.XX..XXX.XX..XXo.XX..XXX.XX..XXX.XX..XXX.XX..XXX.XX..oXX.XX..XXX.XX..XXX.XX..XXX.XX..XXX.Xo..XXX.XX..XXX.XX..XXX.XX..XXX.XX..XXX.oX..XXX.XX..XXX.XX..XXX.XX..XXX.XX..XoX.XX..XXX.XX..XXX.XX..XXX.XX..XXX.XX.oXXX.XX..XXX.XX..XXX.XX..XXX.XX..XXX.Xo..XXX.XX..XXX.XX..XXX.XX..XXX.XX..XXXoXX..XXX.XX..XXX.XX..XXX.XX..XXX.XX   ",
"   X.....XXX.....XXX.....XXX.....XXX.o...XXX.....XXX.....XXX.....XXX.....XXo.....XXX.....XXX.....XXX.....XXX.....oXX.....XXX.....XXX.....XXX.....XXX..o..XXX.....XXX.....XXX.....XXX.....XXX.o...XXX.....XXX.....XXX.....XXX.....XoX.....XXX.....XXX.....XXX.....XXX....oXXX.....XXX.....XXX.....XXX.....XXX..o..XXX.....XXX.....XXX.....XXX.....XXXo....XXX.....XXX.....XXX.....XXX...   ",
"                                                                                                                                                                                                                                                                                                                                                                                          ",
"                                                                                                                                                                                                                                                                                                                                                                                          ",
"                                                                                                                                                                                                                                                                                                                                                                                          "
};
